<?xml version="1.0" encoding="UTF-8"?>
<svg version="1.1" viewBox="0 0 1776 1776" width="1280" height="1280" xmlns="http://www.w3.org/2000/svg">
<path transform="translate(0)" d="m0 0h1776v1776h-1776z" fill="#FEFDFD"/>
<path transform="translate(894,306)" d="m0 0 9 6 12 13 8 8 7 8 11 12 10 16 6 14 3 13v16l-4 10-11 13-7 8-17 17-9 13-1 3v9l2 12 1 3h7l30-13 21-10 24-8 13-2h10l18 3 21 6 16 6 20 10 24 14 24 13 16 9 22 12 25 11 16 4 19 3h14l11-4 6-4 6-7 2-8v-13l-4-13-2-6 1-7 7-3 10-1 11 4 8 6 7 11 5 12 1 5v11l-5 13-9 19-10 14-10 10-14 9-16 7-18 5h-2l11 33 13 30 15 35 13 29 11 25 19 42 8 18 12 26 13 29 12 27 8 16 16 33 27 54 8 14 1 7-3 5-13 10-7 9-13 29-10 17-10 14-12 14-12 13-12 11-14 11-13 8-14 7-24 8-21 5-23 3-31-1-22-3-16-4-32-12-19-10-16-11-16-12-12-11-9-10-11-14-11-16-7-14-6-18-8-10-13-10-5-5 1-5 6-10 8-11 12-20 8-14 20-36 9-17 15-33 17-39 9-22 12-29 12-31 11-30 12-34 11-34 10-32 7-18 8-10 2-5-14-7-16-11-15-10-17-10-19-10-11-5-21-7-4-1h-7l-16 5-19 8-11 6-11 8-14 12-11 12-13 17-7 12-8 16-5 12v6l5 9 7 9 4 11 2 19v22l-3 8-4 5-6 5-4 11-1 13 5 13 5 7 4 15v17l-7 15-2 3v15l2 6 1 5 6 4-1 8-4 8-8 10-4 14v9l4 10 3 12 2 30-1 11v24l1 17 4 20 11 35 9 26 17 39 19 38 5 13 6 15v16l-7 15-2 10-3 7v13l5 9 9 10 17 16 13 12 7 7 7 8 9 10 9 11 14 15 12 13 7 7-1 3-4 3-9 6-30 14-36 12-25 7-33 7-26 4-34 3-23 2-26-1-87-15-19-5-42-14-24-10-20-9-3-2 1-7 13-15 8-10 8-8 8-10 10-10 7-8 4-4h2l2-4 7-7 8-7 20-20 7-8 2-3 1-13-4-11-7-19-2-15 1-10 8-21 18-35 11-23 11-25 5-12 4-14 5-18 4-13 3-9 1-2v-8l-1-2v-7l2-3-1-5-2-3 1-10v-12l1-20 1-3 3-30 3-6v-16l-2-10-5-9-1-4-4-2-3-8 1-7 6-7 1-14 1-2v-7l-5-7-4-17v-13l2-11 7-6 3-5 1-9 1-2v-7l-4-9-9-14-5-12-2-8v-28l7-14 9-8 5-3-1-14-7-16-12-23-13-17-11-12-10-9-18-12-14-6-32-9-11-1-13 4-15 6-14 7-15 9-41 27-9 5 1 6 5 11 6 16 11 30 17 52 11 30 24 63 8 20 12 29 13 30 22 46 12 23 12 22 14 27 7 10 9 8 2 7-3 5-7 7-10 7-6 5-6 21-11 20-7 9-11 14-9 10-12 12-18 13-15 10-19 10-38 14-16 4-12 1h-30l-33-4-19-5-30-11-20-12-13-11-8-7-7-7-22-28-11-17-8-15-9-20-7-9-5-4-8-6-4-5v-9l8-18 14-29 17-32 9-16 11-23 11-22 15-33 28-63 18-41 17-39 19-45 12-29 7-17v-2l-27-9-17-9-10-8-7-6-8-11-7-12-5-13-3-13v-19l4-10 4-6 4-5 11-6 9-2h9l6 4 3 5 1 6-3 10-2 5-1 19 6 9 10 6 14 3 16-1 17-4 27-10 25-12 27-16 26-15 19-10 15-7 16-6 28-8 6-1h20l15 3 20 6 19 8 16 8 14 6 8 1 4-1v-16l-4-13-9-12-12-13-10-13-8-13-4-8-2-6v-20l3-12 8-15 10-13 20-20 11-9 7-7z" fill="#DD9045"/>
<path transform="translate(1200,613)" d="m0 0 4 1 9 3 4 4 4 10 9 27 15 39 10 25 17 38 13 32 12 28 13 30 16 35 13 29 16 33 13 23 12 22 8 17 2 5-1 1-22 2-85 3h-103l-98-2-38-2-3-2 1-5 9-16 8-16 15-31 13-30 12-29 17-44 25-70 16-47 10-28 10-29 12-34 5-12 6-9z" fill="#FEFDFD"/>
<path transform="translate(580,616)" d="m0 0h7l6 5 8 20 15 40 12 35 12 33 10 29 13 37 12 32 20 48 15 35 15 33 11 25 7 16 5 12v2l-3 1-150 1h-85l-109-4 1-6 8-17 10-19 12-24 9-17 11-24 8-16 15-33 26-60 10-23 11-26 12-29 13-32 8-20 11-34 5-13 4-5z" fill="#FEFDFD"/>
<path transform="translate(1237,668)" d="m0 0 4 2 5 8-2-6 3-1 2 1v2l2 1 2 7 6 2 5 5 8 16 9 21 9 20 7 16v2h2l9 19 13 29 8 18 12 26 13 29 12 27 3 6 3 9 11 23 19 38 3 10-2 7-4 2-5 6-7-4-13-27-10-17-15-28-14-29-16-36-14-31-21-49-14-34-19-43-13-34-2-5-1-7z" fill="#FC962C"/>
<path transform="translate(619,639)" d="m0 0h2l5 13 2 6 2 1 12 36 14 41 13 34 9 24 11 29 20 48 4 13 7 16 7 14 5 12 1 5-3 1 3 7 1 5 3 1 4 18-1 6-3 12h-3l-2-5h-2l-15-32-13-30-9-21-14-34-11-28-14-39-13-37-17-48-14-40-1-2v-20l4-2 4-1z" fill="#FD962C"/>
<path transform="translate(480,555)" d="m0 0h2l3 7 3 5 10 16 5 5 3 5 3 3-4 1-2-1-1-3-10-1-8-9-4-6-1-10z" fill="#FC962D"/>
<path transform="translate(638,686)" d="m0 0 2 3 13 38 6 17 10 26 9 24 11 29 20 48 1 5-2-1-9-21-16-40-7-19-6-14-9-26-6-16-2-1-1-6-6-17-2-6-1-6-2-1-2-4z" fill="#DD9046"/>
<path transform="translate(476,515)" d="m0 0h2v12l1 9-4 2-1-8v-14z" fill="#FF972B"/>
</svg>
